<svg id="visual" viewBox="0 0 960 540" width="960" height="540" xmlns="http://www.w3.org/2000/svg" xmlns:xlink="http://www.w3.org/1999/xlink" version="1.1"><g transform="translate(488.3944016877616 255.55122654153087)"><path d="M108.3 -146.1C149.3 -142.3 197.4 -127.2 203.3 -97.7C209.3 -68.2 172.9 -24.3 164.2 22.3C155.6 69 174.5 118.3 162.1 150.2C149.6 182.1 105.8 196.6 66 194.6C26.1 192.5 -9.8 174 -43.7 159.2C-77.5 144.4 -109.4 133.5 -140.3 113.1C-171.1 92.7 -200.9 62.9 -213.5 26C-226.2 -11 -221.8 -55.1 -203.6 -92.1C-185.3 -129 -153.2 -158.7 -117 -164.7C-80.7 -170.6 -40.4 -152.8 -3.3 -147.6C33.7 -142.4 67.4 -149.9 108.3 -146.1" fill="#62649D"></path></g></svg>