<svg id="visual" viewBox="0 0 960 540" width="960" height="540" xmlns="http://www.w3.org/2000/svg" xmlns:xlink="http://www.w3.org/1999/xlink" version="1.1"><g transform="translate(476.4573381594632 317.0603035462162)"><path d="M148.2 -175.1C180.7 -149.3 187.8 -91.9 196.9 -35.5C205.9 20.9 216.8 76.2 188.2 92.5C159.5 108.8 91.3 86.1 48.9 76.4C6.5 66.7 -10.1 70 -30.4 68.9C-50.7 67.9 -74.7 62.4 -112.8 42.7C-150.8 23 -203 -11 -199.4 -35.8C-195.8 -60.6 -136.4 -76.3 -93.9 -100.3C-51.4 -124.3 -25.7 -156.6 16.1 -175.8C57.9 -194.9 115.7 -200.9 148.2 -175.1" fill="#62649D"></path></g></svg>