<svg id="visual" viewBox="0 0 960 540" width="960" height="540" xmlns="http://www.w3.org/2000/svg" xmlns:xlink="http://www.w3.org/1999/xlink" version="1.1"><g transform="translate(464.02258265824037 256.07047656060627)"><path d="M105.2 -115.1C126.3 -107.6 126.7 -65 144.7 -17.5C162.6 30.1 198.2 82.5 185.5 109.4C172.8 136.4 111.7 137.7 60.7 148.1C9.8 158.5 -31 177.9 -69.2 171.9C-107.3 165.9 -142.9 134.4 -152.9 97.7C-162.9 60.9 -147.4 18.8 -144.8 -30.6C-142.2 -80.1 -152.4 -137 -130.4 -144.3C-108.4 -151.7 -54.2 -109.6 -6.1 -102.3C42 -95.1 84 -122.6 105.2 -115.1" fill="#62649D"></path></g></svg>