<svg id="visual" viewBox="0 0 960 540" width="960" height="540" xmlns="http://www.w3.org/2000/svg" xmlns:xlink="http://www.w3.org/1999/xlink" version="1.1"><g transform="translate(492.4180622882044 288.7957117608345)"><path d="M144.9 -171.8C180.5 -142.8 197.1 -90.2 206.3 -36.6C215.5 17 217.3 71.8 191.3 104.5C165.3 137.2 111.5 147.9 64.3 156.2C17 164.6 -23.6 170.6 -72.2 166.7C-120.8 162.8 -177.3 148.9 -208 112.2C-238.6 75.4 -243.4 15.8 -230.9 -38.2C-218.4 -92.2 -188.6 -140.7 -147.2 -168.8C-105.8 -196.8 -52.9 -204.4 0.9 -205.4C54.6 -206.4 109.3 -200.9 144.9 -171.8" fill="#9EA5DF"></path></g></svg>