<svg id="visual" viewBox="0 0 960 540" width="960" height="540" xmlns="http://www.w3.org/2000/svg" xmlns:xlink="http://www.w3.org/1999/xlink" version="1.1"><g transform="translate(498.29428245322237 290.20115450484354)"><path d="M141.7 -182.1C169.4 -145.6 167.8 -87.5 175.4 -32.7C183 22.1 199.7 73.6 184.6 112.9C169.4 152.2 122.3 179.5 75.1 189.2C27.9 198.9 -19.4 191.1 -60.9 173.4C-102.5 155.7 -138.3 128.1 -169.5 90.1C-200.7 52.1 -227.4 3.6 -227.3 -47.6C-227.2 -98.8 -200.4 -152.8 -158 -186.7C-115.7 -220.6 -57.9 -234.3 -0.4 -233.8C57 -233.3 114 -218.5 141.7 -182.1" fill="#9EA5DF"></path></g></svg>