<svg id="visual" viewBox="0 0 960 540" width="960" height="540" xmlns="http://www.w3.org/2000/svg" xmlns:xlink="http://www.w3.org/1999/xlink" version="1.1"><g transform="translate(472.04824415953095 260.2973481378233)"><path d="M95.8 -108.7C129.4 -85.9 165.7 -60.8 189.1 -19.7C212.5 21.3 223.2 78.1 199.3 111C175.5 143.9 117.2 152.8 67.5 159.7C17.8 166.6 -23.3 171.7 -54 156.8C-84.7 141.9 -105.1 107.2 -135.3 70.6C-165.5 33.9 -205.3 -4.7 -195.3 -29.7C-185.2 -54.7 -125.1 -66.1 -84.3 -87.6C-43.4 -109 -21.7 -140.5 4.7 -146.1C31.1 -151.7 62.1 -131.4 95.8 -108.7" fill="#9EA5DF"></path></g></svg>